<svg width="40" height="36" viewBox="0 0 40 36" fill="none" xmlns="http://www.w3.org/2000/svg">
<path d="M33.9182 18.0549C32.8115 17.7984 31.7149 17.625 30.6548 17.5155C33.9629 16.4256 37.084 14.6873 37.7231 12.7622C38.6645 9.92709 35.5474 4.34197 31.8262 1.05286C28.1051 -2.23625 24.8486 2.7836 22.8863 7.81355C21.8933 10.3593 21.2301 12.8212 20.9212 14.7497C20.7561 14.2287 20.308 13.835 19.5697 13.8462C19.3993 13.0022 19.4447 12.1693 19.7505 11.3346C20.1034 10.3725 20.7366 9.57613 21.2933 8.71218C21.3928 8.55766 21.1683 8.38218 21.044 8.53592C19.8915 9.95996 18.7339 12.0455 19.3195 13.8633C19.0713 13.8943 18.8575 13.9487 18.674 14.0201C18.1556 12.1876 17.0612 10.2139 14.9729 9.5694C14.8346 9.52669 14.7086 9.69182 14.8378 9.77982C15.6982 10.3648 16.5751 10.7776 17.2399 11.5856C17.8554 12.3336 18.1269 13.2369 18.5403 14.0796C17.8121 14.429 17.6631 15.0908 17.9161 15.6931C16.6382 14.0918 14.7033 12.1271 12.4045 10.239C8.05786 6.66878 2.5783 3.67032 1.01975 8.18108C-0.538809 12.6918 -0.369737 18.9592 1.93546 21.043C3.5007 22.458 7.15124 22.6296 10.6284 22.1492C9.75311 22.7064 8.8794 23.3359 8.03967 24.0427C2.49617 28.7095 6.4244 37.9914 14.3322 35.6183C19.8118 33.9737 21.0078 28.2136 20.854 23.9291C21.2403 24.6603 21.6039 25.1735 21.8387 25.1295C22.098 25.0809 22.1638 23.8965 22.1055 22.5856C24.0214 26.5652 28.2661 31.986 34.4161 30.9711C42.6069 29.6193 41.2249 19.7484 33.9182 18.0549Z" fill="url(#paint0_linear_2912_36228)"/>
<defs>
<linearGradient id="paint0_linear_2912_36228" x1="40" y1="0" x2="4.1989" y2="39.779" gradientUnits="userSpaceOnUse">
<stop offset="0.0001" stop-color="#68DBF2"/>
<stop offset="1" stop-color="#3B82F6"/>
</linearGradient>
</defs>
</svg>
